<svg xmlns="http://www.w3.org/2000/svg" width="28" height="28" fill="none" viewBox="0 0 28 28">
    <g clip-path="url(#a)">
        <path fill="url(#b)" d="M14.077 0C8.02-.042 3.095 4.856 3.095 10.904c0 2.46.815 4.73 2.189 6.555l7.054 9.694a2.055 2.055 0 0 0 3.324 0l7.054-9.694a10.86 10.86 0 0 0 2.189-6.464C24.953 4.992 20.08.042 14.077 0M14 16.904a5.999 5.999 0 1 1 0-11.998 5.999 5.999 0 0 1 0 11.998"/>
        <path fill="url(#c)" d="M14 3.204a7.7 7.7 0 1 0 0 15.402 7.701 7.701 0 0 0 0-15.402m0 13.11a5.409 5.409 0 1 1 0-10.818 5.409 5.409 0 0 1 0 10.817"/>
        <path fill="url(#d)" d="M19.408 10.904a5.409 5.409 0 1 1-10.357-2.18H3.314a11 11 0 0 0-.219 2.18c0 2.46.815 4.73 2.189 6.555l7.054 9.694a2.055 2.055 0 0 0 3.324 0l7.054-9.694a10.86 10.86 0 0 0 2.189-6.464 11 11 0 0 0-.222-2.272H18.95c.303.687.46 1.43.46 2.181"/>
        <path fill="url(#e)" d="M14.077 0c-.63-.004-1.26.045-1.881.149v5.656a5.408 5.408 0 1 1 0 10.199v10.955l.142.194a2.055 2.055 0 0 0 3.324 0l7.054-9.694a10.86 10.86 0 0 0 2.189-6.465C24.953 4.992 20.08.042 14.077 0"/>
        <path fill="url(#f)" d="M14.077 0c-.63-.004-1.26.045-1.881.149v5.656a5.408 5.408 0 1 1 0 10.199v10.955l.142.194a2.055 2.055 0 0 0 3.324 0l7.054-9.694a10.86 10.86 0 0 0 2.189-6.465C24.953 4.992 20.08.042 14.077 0"/>
        <path fill="url(#g)" d="M14 14.814a3.909 3.909 0 1 0 0-7.818 3.909 3.909 0 0 0 0 7.818"/>
        <path fill="url(#h)" d="M10.09 10.905a3.909 3.909 0 1 0 7.586-1.332h-7.352a3.9 3.9 0 0 0-.233 1.332"/>
        <path fill="url(#i)" d="M11.236 13.669a3.909 3.909 0 1 0 4.422-6.305l-5.199 5.199c.193.41.456.785.777 1.106"/>
    </g>
    <defs>
        <linearGradient id="b" x1="3.052" x2="20.721" y1="14" y2="14" gradientUnits="userSpaceOnUse">
            <stop stop-color="#ffa1ae"/>
            <stop offset="1" stop-color="#ff4565"/>
        </linearGradient>
        <linearGradient id="c" x1="19.39" x2="9.225" y1="16.294" y2="6.13" gradientUnits="userSpaceOnUse">
            <stop stop-color="#ffa1ae"/>
            <stop offset="1" stop-color="#ff4565"/>
        </linearGradient>
        <linearGradient id="d" x1="16.854" x2="21.14" y1="16.64" y2="20.117" gradientUnits="userSpaceOnUse">
            <stop stop-color="#fe0364" stop-opacity="0"/>
            <stop offset=".234" stop-color="#f90362" stop-opacity=".234"/>
            <stop offset=".517" stop-color="#ea035b" stop-opacity=".517"/>
            <stop offset=".824" stop-color="#d20250" stop-opacity=".824"/>
            <stop offset="1" stop-color="#c00148"/>
        </linearGradient>
        <linearGradient id="e" x1="18.339" x2="23.959" y1="14.611" y2="15.468" gradientUnits="userSpaceOnUse">
            <stop stop-color="#fe0364" stop-opacity="0"/>
            <stop offset=".234" stop-color="#f90362" stop-opacity=".234"/>
            <stop offset=".517" stop-color="#ea035b" stop-opacity=".517"/>
            <stop offset=".824" stop-color="#d20250" stop-opacity=".824"/>
            <stop offset="1" stop-color="#c00148"/>
        </linearGradient>
        <linearGradient id="f" x1="21.004" x2="24.624" y1="11.329" y2="10.043" gradientUnits="userSpaceOnUse">
            <stop stop-color="#fe0364" stop-opacity="0"/>
            <stop offset=".234" stop-color="#f90362" stop-opacity=".234"/>
            <stop offset=".517" stop-color="#ea035b" stop-opacity=".517"/>
            <stop offset=".824" stop-color="#d20250" stop-opacity=".824"/>
            <stop offset="1" stop-color="#c00148"/>
        </linearGradient>
        <linearGradient id="g" x1="11.966" x2="15.437" y1="8.871" y2="12.342" gradientUnits="userSpaceOnUse">
            <stop stop-color="#f5fbff"/>
            <stop offset="1" stop-color="#dbd5ef"/>
        </linearGradient>
        <linearGradient id="h" x1="14" x2="14" y1="10.703" y2="14.965" gradientUnits="userSpaceOnUse">
            <stop stop-color="#dbd5ef" stop-opacity="0"/>
            <stop offset=".285" stop-color="#d9d2ee" stop-opacity=".285"/>
            <stop offset=".474" stop-color="#d4c9e9" stop-opacity=".474"/>
            <stop offset=".635" stop-color="#cbbae2" stop-opacity=".635"/>
            <stop offset=".779" stop-color="#bfa5d7" stop-opacity=".78"/>
            <stop offset=".913" stop-color="#af8aca" stop-opacity=".913"/>
            <stop offset="1" stop-color="#a274bf"/>
        </linearGradient>
        <linearGradient id="i" x1="13.746" x2="17.151" y1="10.686" y2="13.623" gradientUnits="userSpaceOnUse">
            <stop stop-color="#dbd5ef" stop-opacity="0"/>
            <stop offset=".285" stop-color="#d9d2ee" stop-opacity=".285"/>
            <stop offset=".474" stop-color="#d4c9e9" stop-opacity=".474"/>
            <stop offset=".635" stop-color="#cbbae2" stop-opacity=".635"/>
            <stop offset=".779" stop-color="#bfa5d7" stop-opacity=".78"/>
            <stop offset=".913" stop-color="#af8aca" stop-opacity=".913"/>
            <stop offset="1" stop-color="#a274bf"/>
        </linearGradient>
        <clipPath id="a">
            <path fill="#fff" d="M0 0h28v28H0z"/>
        </clipPath>
    </defs>
</svg>
