<svg xmlns="http://www.w3.org/2000/svg" width="28" height="28" fill="none" viewBox="0 0 28 28">
    <mask id="a" width="28" height="28" x="0" y="0" maskUnits="userSpaceOnUse" style="mask-type:alpha">
        <path fill="#d9d9d9" d="M0 0h28v28H0z"/>
    </mask>
    <g clip-path="url(#b)">
        <path fill="#4caf50" d="M14 0C6.27 0 0 6.269 0 14c0 3.066.987 5.904 2.664 8.211L.739 27.272l5.554-1.582A13.93 13.93 0 0 0 14 28c7.732 0 14-6.268 14-14 0-7.731-6.268-14-14-14m7.441 19.8-1.49 1.49c-1.569 1.569-5.727-.157-9.412-3.842C6.849 13.758 5.2 9.6 6.692 8.033l1.491-1.491c.55-.55 1.491-.55 2.118 0l2.198 2.198c.784.784.469 2.117-.55 2.428-.707.239-1.176 1.023-.941 1.73.392 1.645 2.51 3.685 4.08 4.077.704.157 1.492-.235 1.726-.942.312-1.018 1.649-1.333 2.433-.549l2.194 2.198c.55.55.55 1.491 0 2.117"/>
    </g>
    <defs>
        <clipPath id="b">
            <path fill="#fff" d="M0 0h28v28H0z"/>
        </clipPath>
    </defs>
</svg>
