<svg xmlns="http://www.w3.org/2000/svg" width="24" height="24" fill="none" viewBox="0 0 24 24">
    <mask id="a" width="24" height="24" x="0" y="0" maskUnits="userSpaceOnUse" style="mask-type:alpha">
        <path fill="#d9d9d9" d="M0 0h24v24H0z"/>
    </mask>
    <g clip-path="url(#b)">
        <path fill="url(#c)" d="M23.955 17.493q.015-.162.024-.326c.007-.129-7.552-7.518-7.552-7.518h-.181s7.662 8.326 7.709 7.844"/>
        <path fill="url(#d)" d="m7.825 14.93-.03.068q-.016.036-.033.07c-.24.518 3.374 4.158 3.665 3.716l.04-.06.043-.068c.233-.364-3.581-3.963-3.685-3.726"/>
        <path fill="url(#e)" d="M12.933 20.048c-.01.024-.083.15-.15.217-.01.023 3.53 3.64 3.53 3.64h.318s-3.323-3.704-3.698-3.857"/>
        <path fill="url(#f)" d="M23.984 17.102c-.166 3.78-3.202 6.803-6.911 6.803h-.502l-3.704-3.76c.305-.442.588-.9.84-1.379h3.366c1.064 0 1.93-.892 1.93-1.989s-.866-1.989-1.93-1.989H15.08a14.04 14.04 0 0 0-.007-5.14h1.237l7.651 7.767a9 9 0 0 0 .022-.313M2.012.533H0v5.14h2.012c3.515 0 6.375 2.944 6.375 6.565 0 .985-.213 1.92-.592 2.76l3.672 3.726a11.9 11.9 0 0 0 1.91-6.486C13.377 5.784 8.279.533 2.012.533"/>
        <path fill="url(#g)" d="M17.073.533h-8.15a13.63 13.63 0 0 1 4.762 5.14h3.388c1.064 0 1.93.891 1.93 1.988s-.866 1.989-1.93 1.989h-.761l7.65 7.765q.028-.314.03-.638a7.22 7.22 0 0 0-1.606-4.558 7.22 7.22 0 0 0 1.606-4.558c0-3.93-3.104-7.128-6.92-7.128"/>
        <path fill="url(#h)" d="M16.571 23.905h-7.59a13.6 13.6 0 0 0 3.886-3.76zm-5.105-5.18-3.67-3.727c-1.015 2.245-3.225 3.807-5.784 3.807H0v5.138h2.012c3.939 0 7.415-2.075 9.455-5.218"/>
    </g>
    <defs>
        <linearGradient id="c" x1="-622.81" x2="844.384" y1="-720.254" y2="819.051" gradientUnits="userSpaceOnUse">
            <stop stop-color="#f9a03c"/>
            <stop offset="1" stop-color="#f7974e"/>
        </linearGradient>
        <linearGradient id="d" x1="-968.312" x2="421.11" y1="-956.72" y2="352.223" gradientUnits="userSpaceOnUse">
            <stop stop-color="#f9a03c"/>
            <stop offset="1" stop-color="#f7974e"/>
        </linearGradient>
        <linearGradient id="e" x1="-845.825" x2="377.758" y1="-990.194" y2="409.402" gradientUnits="userSpaceOnUse">
            <stop stop-color="#f9a03c"/>
            <stop offset="1" stop-color="#f7974e"/>
        </linearGradient>
        <linearGradient id="f" x1="271.955" x2="1922.9" y1="-42.05" y2="2194.34" gradientUnits="userSpaceOnUse">
            <stop stop-color="#f26d58"/>
            <stop offset="1" stop-color="#f9a03c"/>
        </linearGradient>
        <linearGradient id="g" x1="247.663" x2="1921.64" y1="65.663" y2="1047.43" gradientUnits="userSpaceOnUse">
            <stop stop-color="#b84e51"/>
            <stop offset="1" stop-color="#f68e48"/>
        </linearGradient>
        <linearGradient id="h" x1="778.59" x2="802.263" y1="224.909" y2="1334.69" gradientUnits="userSpaceOnUse">
            <stop stop-color="#f9a03c"/>
            <stop offset="1" stop-color="#f7974e"/>
        </linearGradient>
        <clipPath id="b">
            <path fill="#fff" d="M0 .533h24V24H0z"/>
        </clipPath>
    </defs>
</svg>
