<svg xmlns="http://www.w3.org/2000/svg" width="24" height="24" fill="none" viewBox="0 0 24 24">
    <mask id="a" width="24" height="24" x="0" y="0" maskUnits="userSpaceOnUse" style="mask-type:alpha">
        <path fill="#d9d9d9" d="M0 0h23.04v23.04H0z"/>
    </mask>
    <g clip-path="url(#b)">
        <path fill="#00bcff" d="M12.507 12.48a3.84 3.84 0 1 1 7.68 0 3.84 3.84 0 0 1-7.68 0"/>
        <path fill="#00cf7f" d="M4.827 20.16a3.84 3.84 0 0 1 3.84-3.84l2.046-1.08 1.794 1.08v3.84a3.84 3.84 0 1 1-7.68 0"/>
        <path fill="#ff7361" d="m12.506.96-2.09 3.63 2.09 4.05h3.786a3.84 3.84 0 1 0 0-7.68z"/>
        <path fill="#ff4d12" d="M4.773 4.8a3.84 3.84 0 0 0 3.84 3.84l2.037.787 1.856-.787V.96H8.613a3.84 3.84 0 0 0-3.84 3.84"/>
        <path fill="#b659ff" d="M4.827 12.48a3.84 3.84 0 0 0 3.84 3.84h3.84V8.64h-3.84a3.84 3.84 0 0 0-3.84 3.84"/>
    </g>
    <defs>
        <clipPath id="b">
            <path fill="#fff" d="M.96.96H24V24H.96z"/>
        </clipPath>
    </defs>
</svg>
