<svg xmlns="http://www.w3.org/2000/svg" width="37" height="37" fill="none" viewBox="0 0 37 37">
    <g clip-path="url(#a)">
        <path fill="#fbbb00" d="m8.2 22.36-1.288 4.808-4.707.1A18.4 18.4 0 0 1 0 18.5c0-3.068.746-5.96 2.069-8.508l4.191.768 1.836 4.166a11 11 0 0 0-.593 3.574c0 1.358.246 2.66.697 3.86"/>
        <path fill="#518ef8" d="M36.677 15.044c.213 1.12.324 2.275.324 3.456 0 1.325-.14 2.616-.405 3.863a18.5 18.5 0 0 1-6.514 10.564v-.001l-5.28-.27-.746-4.663a11.03 11.03 0 0 0 4.744-5.63h-9.893v-7.32z"/>
        <path fill="#28b446" d="m30.08 32.926.001.001A18.42 18.42 0 0 1 18.5 37c-7.045 0-13.17-3.938-16.295-9.733L8.2 22.36c1.563 4.17 5.585 7.137 10.3 7.137 2.027 0 3.926-.547 5.555-1.504z"/>
        <path fill="#f14336" d="m30.31 4.26-5.994 4.906a10.94 10.94 0 0 0-5.815-1.663c-4.822 0-8.92 3.104-10.404 7.423L2.07 9.992C5.147 4.056 11.35 0 18.5 0c4.49 0 8.605 1.599 11.81 4.26"/>
    </g>
    <defs>
        <clipPath id="a">
            <path fill="#fff" d="M0 0h37v37H0z"/>
        </clipPath>
    </defs>
</svg>
