<svg xmlns="http://www.w3.org/2000/svg" width="24" height="24" fill="none" viewBox="0 0 24 24">
    <mask id="a" width="24" height="24" x="0" y="0" maskUnits="userSpaceOnUse" style="mask-type:alpha">
        <path fill="#d9d9d9" d="M0 0h24v24H0z"/>
    </mask>
    <g fill="#e535ab" clip-path="url(#b)">
        <path d="m4.136 17.992-.838-.485 9.33-16.19.837.485z"/>
        <path d="M3.107 16.214h18.658v.969H3.107z"/>
        <path d="m12.809 22.157-9.333-5.399.484-.839 9.332 5.4zm8.107-14.07-9.333-5.4.484-.838 9.332 5.398z"/>
        <path d="m3.962 8.083-.483-.84 9.332-5.398.484.839z"/>
        <path d="m20.744 17.992-9.33-16.19.838-.484 9.33 16.19zM3.847 6.6h.967v10.798h-.967z"/>
        <path d="M20.064 6.6h.967V17.4h-.967z"/>
        <path d="m12.644 21.747-.422-.733 8.117-4.696.422.733z"/>
        <path d="M22.313 17.714a2.034 2.034 0 0 1-2.78.747 2.04 2.04 0 0 1-.745-2.784 2.034 2.034 0 0 1 2.779-.747c.979.566 1.31 1.81.745 2.784M6.083 8.323a2.034 2.034 0 0 1-2.778.747 2.04 2.04 0 0 1-.746-2.784 2.034 2.034 0 0 1 2.779-.747 2.044 2.044 0 0 1 .745 2.784m-3.518 9.39a2.044 2.044 0 0 1 .746-2.783 2.035 2.035 0 0 1 2.778.747c.56.975.227 2.218-.745 2.784-.979.56-2.22.228-2.779-.747m16.23-9.39a2.044 2.044 0 0 1 .745-2.784 2.035 2.035 0 0 1 2.778.747 2.034 2.034 0 1 1-3.524 2.037m-6.356 15.105a2.033 2.033 0 0 1-2.033-2.037 2.033 2.033 0 1 1 4.066 0c0 1.12-.909 2.037-2.033 2.037m0-18.782a2.033 2.033 0 0 1-2.033-2.037 2.033 2.033 0 1 1 4.066 0 2.033 2.033 0 0 1-2.033 2.037"/>
    </g>
    <defs>
        <clipPath id="b">
            <path fill="#fff" d="M2 0h20.878v24H2z"/>
        </clipPath>
    </defs>
</svg>
