<svg xmlns="http://www.w3.org/2000/svg" width="24" height="24" fill="none" viewBox="0 0 24 24">
    <mask id="a" width="24" height="24" x="0" y="0" maskUnits="userSpaceOnUse" style="mask-type:alpha">
        <path fill="#d9d9d9" d="M0 0h24v24H0z"/>
    </mask>
    <g mask="url(#a)">
        <mask id="b" width="24" height="24" x="0" y="0" maskUnits="userSpaceOnUse" style="mask-type:alpha">
            <path fill="#d9d9d9" d="M.706.706H24V24H.706z"/>
        </mask>
        <g clip-path="url(#c)">
            <path fill="#ec5328" d="M4.375 21.56 2.703.745l19.966.042-1.768 20.773-8.14 2.401z"/>
            <path fill="#ef652a" d="M12.761 21.95V2.728l8.223.028-1.467 17.2z"/>
            <path fill="#fff" d="m18.723 7.53.232-2.541H6.307l.699 7.79h8.729l-.342 3.322-2.796.768-2.837-.838-.15-1.982H7.102l.342 4.049 5.153 1.465 5.194-1.465.698-7.902H9.322l-.26-2.666z"/>
        </g>
    </g>
    <defs>
        <clipPath id="c">
            <path fill="#fff" d="M2.703.706h19.966V24H2.703z"/>
        </clipPath>
    </defs>
</svg>
