<svg xmlns="http://www.w3.org/2000/svg" width="24" height="24" fill="none" viewBox="0 0 24 24">
    <mask id="a" width="24" height="24" x="0" y="0" maskUnits="userSpaceOnUse" style="mask-type:alpha">
        <rect width="24" height="24" fill="#d9d9d9" rx="5"/>
    </mask>
    <g mask="url(#a)">
        <mask id="b" width="24" height="24" x="0" y="0" maskUnits="userSpaceOnUse" style="mask-type:alpha">
            <path fill="#d9d9d9" d="M0 0h24v24H0z"/>
        </mask>
        <g clip-path="url(#c)">
            <path fill="#f0db4f" d="M0 0h24v24H0z"/>
            <path fill="#323330" d="M22.036 18.276c-.176-1.095-.89-2.014-3.005-2.872-.735-.338-1.554-.58-1.798-1.136-.086-.324-.098-.507-.043-.703.157-.636.917-.835 1.52-.652.387.13.755.428.976.905 1.035-.67 1.033-.666 1.756-1.127-.264-.41-.406-.6-.58-.775-.622-.696-1.47-1.054-2.828-1.027q-.354.046-.707.091c-.678.171-1.323.527-1.702 1.004-1.136 1.289-.812 3.545.57 4.474 1.362 1.022 3.363 1.255 3.619 2.21.248 1.17-.86 1.55-1.962 1.415-.813-.169-1.264-.582-1.753-1.332-.898.52-.898.52-1.822 1.051.219.48.45.696.816 1.111 1.739 1.764 6.09 1.677 6.87-.992.031-.091.241-.703.073-1.645m-8.989-7.246h-2.245c0 1.94-.009 3.865-.009 5.804 0 1.234.064 2.366-.137 2.713-.328.682-1.18.598-1.567.465-.395-.194-.596-.47-.828-.86-.064-.112-.112-.198-.128-.205q-.913.559-1.825 1.118c.303.622.75 1.163 1.323 1.514.856.514 2.005.671 3.208.395.782-.228 1.457-.7 1.811-1.419.511-.942.402-2.083.397-3.344.011-2.058 0-4.116 0-6.18"/>
        </g>
    </g>
    <defs>
        <clipPath id="c">
            <path fill="#fff" d="M0 0h24v24H0z"/>
        </clipPath>
    </defs>
</svg>
