<svg xmlns="http://www.w3.org/2000/svg" width="24" height="24" fill="none" viewBox="0 0 24 24">
    <mask id="a" width="24" height="24" x="0" y="0" maskUnits="userSpaceOnUse" style="mask-type:alpha">
        <path fill="#d9d9d9" d="M0 0h24v24H0z"/>
    </mask>
    <g mask="url(#a)">
        <mask id="b" width="24" height="24" x="0" y="0" maskUnits="userSpaceOnUse" style="mask-type:alpha">
            <path fill="#d9d9d9" d="M0 0h24v24H0z"/>
        </mask>
        <g clip-path="url(#c)">
            <path fill="#fff" d="M3.09 15.506q.03.07.069.135.018.039.042.076.035.07.072.138l.14.24c.026.045.05.089.08.133.049.085.107.17.158.255q.033.053.07.107c.098.155.187.285.283.41q.1.14.208.278.037.053.076.104l.197.244c.024.029.048.062.074.09q.132.16.273.318 0 .003.004.006.172.222.374.396l.004.003q.105.113.218.222l.09.088q.148.143.302.28.002 0 .005.003l.05.045q.137.122.277.236l.111.096q.115.091.232.181l.121.095q.127.096.256.188.046.034.094.066l.026.021.25.168.108.073q.195.127.39.246.058.029.11.062c.097.056.197.114.294.166q.08.044.164.085l.207.114q.029.01.052.022l.004-.004.085.043q.16.082.334.158.033.013.068.03.191.087.39.166c.03.009.062.024.093.036q.181.071.367.139l.045.016q.202.071.41.136l.099.03c.141.044.279.096.422.123 9.155 1.698 11.815-5.6 11.815-5.6-2.235 2.961-6.201 3.742-9.958 2.873-.139-.033-.278-.079-.418-.12a10 10 0 0 1-.591-.191l.084.026-.055-.022q-.18-.063-.356-.134l-.089-.035-.01-.003a12 12 0 0 1-.385-.166c-.027-.009-.05-.021-.078-.032a12 12 0 0 1-.445-.21l.123.056a1 1 0 0 1-.095-.048q-.127-.062-.25-.128a3 3 0 0 1-.184-.097l.018.01c-.1-.055-.202-.115-.303-.17q-.046-.032-.1-.06-.227-.135-.447-.28l.056.035a2 2 0 0 1-.11-.075l.005.003a5 5 0 0 1-.282-.19l-.09-.063a8 8 0 0 1-.282-.208l.02.016q-.056-.046-.117-.09c-.078-.063-.157-.123-.236-.189l-.105-.086a9 9 0 0 1-.33-.281v-.001l-.31-.287-.09-.086q-.109-.111-.222-.222l-.086-.091a8 8 0 0 1-.27-.287l-.006-.007-.015-.013a16 16 0 0 1-.279-.321q-.035-.043-.071-.088l-.202-.251q-.137-.176-.268-.356l-.035-.051C3.755 11.354 3 7.36 4.669 4.084L3.196 5.987c-1.894 2.77-1.66 6.37-.21 9.311q.05.107.104.208"/>
            <path fill="#c4c4c4" d="m9.468 11.517-.01-.015-.007-.01z"/>
            <path fill="#fff" d="m10.465 12.712.08.082q.153.15.312.295l.014.012c.106.097.227.198.35.296l.02.015c.03.02.056.045.085.066q.186.147.381.287l.014.008q.083.059.176.118c.025.017.054.039.08.055q.142.092.283.178.022.011.043.021c.08.05.167.099.25.143.03.018.059.031.09.049q.089.046.175.093l.028.013q.181.089.364.172.044.017.082.034.15.067.298.124.067.026.129.048c.09.034.186.066.276.098l.125.041c.13.041.262.095.4.117 7.07 1.19 8.706-4.348 8.706-4.348-1.473 2.157-4.324 3.185-7.362 2.382a7 7 0 0 1-.451-.132l.05.015q-.062-.019-.12-.039c-.093-.032-.189-.064-.279-.098l-.128-.05q-.151-.059-.299-.122c-.03-.014-.057-.023-.08-.037q-.189-.085-.373-.174L14 12.377l-.106-.055c-.082-.044-.158-.09-.236-.136a1 1 0 0 1-.058-.033l.003.001c-.095-.06-.193-.118-.284-.18q-.045-.026-.086-.056l-.185-.123c-.129-.09-.254-.188-.382-.283q-.042-.038-.084-.072c-1.336-1.069-2.389-2.53-2.889-4.183-.526-1.72-.41-3.648.5-5.213l-1.12 1.611C7.7 5.661 7.779 8.342 8.848 10.463c.196.392.393.723.612 1.038.203.297.428.645.699.884q.145.167.307.327"/>
            <path fill="#c4c4c4" d="M4.008 17.006 4.005 17l-.007-.008zm3.706-.678.009.006.001.003z"/>
            <path fill="#fff" d="M14.016 1.911c-.81 1.21-.887 2.711-.33 4.044.593 1.416 1.804 2.528 3.216 3.055q.085.033.174.064l.078.024c.082.027.165.058.25.077 3.904.766 4.961-2.04 5.245-2.452-.93 1.357-2.488 1.684-4.4 1.21a4 4 0 0 1-.49-.154l.029.01q-.3-.106-.585-.246l.034.015a5.7 5.7 0 0 1-.97-.605c-1.71-1.321-2.767-3.837-1.65-5.886z"/>
        </g>
    </g>
    <defs>
        <clipPath id="c">
            <path fill="#fff" d="M0 1.067h24v22.4H0z"/>
        </clipPath>
    </defs>
</svg>
