<svg xmlns="http://www.w3.org/2000/svg" width="24" height="24" fill="none" viewBox="0 0 24 24">
    <mask id="a" width="24" height="24" x="0" y="0" maskUnits="userSpaceOnUse" style="mask-type:alpha">
        <path fill="#d9d9d9" d="M0 0h24v24H0z"/>
    </mask>
    <g fill="#8cc84b" clip-path="url(#b)">
        <path d="M10.915.305a2 2 0 0 1 1.957 0q4.468 2.523 8.935 5.047c.56.315.935.939.929 1.584v10.125c.004.672-.408 1.31-.998 1.619q-4.453 2.511-8.904 5.022a1.95 1.95 0 0 1-1.978-.055l-2.671-1.544c-.182-.109-.387-.195-.516-.371.114-.153.317-.172.482-.24.371-.117.712-.307 1.054-.49.086-.06.191-.037.274.015.761.437 1.515.886 2.279 1.318.163.094.328-.03.467-.108 2.913-1.647 5.83-3.287 8.742-4.934a.29.29 0 0 0 .159-.284q.001-5.01.001-10.021a.31.31 0 0 0-.186-.312q-4.437-2.5-8.873-5.001a.31.31 0 0 0-.348 0Q7.284 4.175 2.848 6.676a.31.31 0 0 0-.188.31V17.01a.28.28 0 0 0 .161.281q1.185.67 2.37 1.338c.444.24.99.382 1.481.198.433-.155.736-.596.728-1.056.004-3.32-.002-6.641.003-9.961-.011-.147.129-.27.272-.255q.57-.006 1.138 0c.158-.003.267.156.248.304-.002 3.342.004 6.684-.003 10.025.001.89-.365 1.86-1.188 2.295-1.015.526-2.27.415-3.272-.09-.868-.433-1.696-.944-2.549-1.408-.592-.307-1.002-.947-.998-1.619V6.936a1.84 1.84 0 0 1 .961-1.604z"/>
        <path d="M13.505 7.318c1.294-.083 2.68-.049 3.845.589.901.488 1.401 1.514 1.417 2.516-.025.135-.166.21-.295.2-.376 0-.751.006-1.127-.002-.16.006-.252-.14-.272-.282-.108-.48-.37-.954-.82-1.185-.693-.347-1.496-.33-2.251-.322-.552.029-1.145.077-1.612.401-.359.246-.468.741-.34 1.14.121.287.452.38.723.465 1.56.408 3.213.368 4.743.905.634.218 1.254.644 1.47 1.307.284.89.16 1.952-.473 2.666-.513.587-1.26.907-2.005 1.08-.991.221-2.02.227-3.026.129-.947-.108-1.932-.357-2.663-1.002-.625-.542-.93-1.388-.9-2.204.008-.137.145-.233.277-.222q.567-.005 1.135 0c.15-.01.263.12.27.262.07.457.242.937.64 1.207.769.496 1.733.462 2.613.476.73-.032 1.548-.042 2.143-.524.314-.275.407-.735.322-1.13-.092-.334-.441-.49-.741-.592-1.54-.487-3.212-.31-4.737-.861-.619-.219-1.218-.633-1.455-1.269-.332-.9-.18-2.013.518-2.703.682-.686 1.665-.95 2.6-1.045"/>
    </g>
    <defs>
        <clipPath id="b">
            <path fill="#fff" d="M1 0h21.792v24H1z"/>
        </clipPath>
    </defs>
</svg>
