<svg xmlns="http://www.w3.org/2000/svg" width="24" height="24" fill="none" viewBox="0 0 24 24">
    <mask id="a" width="24" height="24" x="0" y="0" maskUnits="userSpaceOnUse" style="mask-type:alpha">
        <path fill="#d9d9d9" d="M0 0h24v24H0z"/>
    </mask>
    <g clip-path="url(#b)">
        <path fill="url(#c)" d="M11.897.007C5.82.007 6.2 2.653 6.2 2.653l.007 2.741h5.8v.823H3.903s-3.89-.442-3.89 5.714 3.395 5.939 3.395 5.939h2.026v-2.857s-.11-3.408 3.34-3.408h5.752s3.232.052 3.232-3.136V3.197s.49-3.19-5.86-3.19M8.7 1.85a1.04 1.04 0 0 1 .965.647 1.05 1.05 0 0 1-.965 1.448 1.04 1.04 0 0 1-.964-.646A1.05 1.05 0 0 1 8.7 1.85"/>
        <path fill="url(#d)" d="M12.07 23.918c6.077 0 5.698-2.646 5.698-2.646l-.007-2.742h-5.8v-.823h8.103s3.89.443 3.89-5.714-3.395-5.938-3.395-5.938h-2.026v2.857s.11 3.408-3.34 3.408H9.441s-3.232-.053-3.232 3.136v5.271s-.49 3.19 5.86 3.19m3.198-1.844a1.04 1.04 0 0 1-.965-.646 1.05 1.05 0 0 1 .565-1.37 1.04 1.04 0 0 1 1.138.228 1.045 1.045 0 0 1 .226 1.142 1.045 1.045 0 0 1-.964.646"/>
    </g>
    <defs>
        <linearGradient id="c" x1="230.074" x2="1421.17" y1="215.072" y2="1389.56" gradientUnits="userSpaceOnUse">
            <stop stop-color="#387eb8"/>
            <stop offset="1" stop-color="#366994"/>
        </linearGradient>
        <linearGradient id="d" x1="345.779" x2="1624.64" y1="373.677" y2="1577.79" gradientUnits="userSpaceOnUse">
            <stop stop-color="#ffe052"/>
            <stop offset="1" stop-color="#ffc331"/>
        </linearGradient>
        <clipPath id="b">
            <path fill="#fff" d="M0 0h24v24H0z"/>
        </clipPath>
    </defs>
</svg>
