<svg xmlns="http://www.w3.org/2000/svg" width="24" height="24" fill="none" viewBox="0 0 24 24">
    <mask id="a" width="24" height="24" x="0" y="0" maskUnits="userSpaceOnUse" style="mask-type:alpha">
        <path fill="#d9d9d9" d="M0 0h24v24H0z"/>
    </mask>
    <g fill="#61dafb" mask="url(#a)">
        <path d="M23.859 12.05c0-1.477-1.92-2.877-4.866-3.745.68-2.891.378-5.191-.953-5.928a2.13 2.13 0 0 0-1.057-.254v1.013c.217 0 .392.041.538.118.642.355.92 1.705.703 3.442-.052.427-.137.877-.24 1.336a24 24 0 0 0-2.998-.495 22 22 0 0 0-1.963-2.273c1.539-1.378 2.983-2.132 3.965-2.132V2.118c-1.298 0-2.997.891-4.715 2.437-1.718-1.537-3.417-2.419-4.715-2.419V3.15c.977 0 2.426.75 3.965 2.118a22 22 0 0 0-1.95 2.269c-1.066.109-2.076.277-3.001.5a13 13 0 0 1-.245-1.319c-.222-1.736.051-3.086.689-3.445.141-.082.325-.119.542-.119V2.141c-.396 0-.755.082-1.066.254-1.326.737-1.624 3.032-.94 5.914-2.935.873-4.846 2.269-4.846 3.742 0 1.477 1.92 2.877 4.865 3.745-.68 2.891-.377 5.191.954 5.928.307.172.665.254 1.062.254 1.297 0 2.996-.89 4.714-2.436 1.718 1.536 3.417 2.418 4.715 2.418.396 0 .755-.082 1.066-.254 1.326-.737 1.624-3.032.94-5.914 2.926-.869 4.837-2.269 4.837-3.742m-6.145-3.032a20 20 0 0 1-.637 1.796 24.51 24.51 0 0 0-1.298-2.155q1.006.143 1.935.36m-2.161 4.842a24 24 0 0 1-1.138 1.736 25.5 25.5 0 0 1-4.256.005 25 25 0 0 1-1.142-1.728q-.538-.894-.982-1.809a24.103 24.103 0 0 1 2.114-3.55 25.5 25.5 0 0 1 4.257-.005q.589.813 1.142 1.728.537.894.982 1.809c-.298.609-.623 1.218-.977 1.814m1.524-.591c.255.609.472 1.218.651 1.809-.618.145-1.27.268-1.944.364a25 25 0 0 0 1.293-2.173m-4.785 4.85a19 19 0 0 1-1.312-1.455q.639.03 1.298.032.666.001 1.312-.032a18 18 0 0 1-1.298 1.455M8.78 15.442a22 22 0 0 1-1.935-.36c.174-.586.391-1.19.637-1.795.193.364.396.727.618 1.09q.332.547.68 1.065m3.487-9.46q.66.656 1.312 1.455a30 30 0 0 0-1.298-.032q-.666-.001-1.312.032c.425-.532.864-1.019 1.298-1.455M8.776 8.659a25 25 0 0 0-1.293 2.169 19 19 0 0 1-.651-1.81c.618-.14 1.269-.263 1.944-.359m-4.271 5.692c-1.67-.687-2.751-1.587-2.751-2.3 0-.714 1.08-1.619 2.75-2.3.407-.169.85-.319 1.308-.46.27.891.623 1.819 1.062 2.769a21 21 0 0 0-1.048 2.754c-.467-.14-.91-.295-1.321-.463m2.539 6.495c-.642-.354-.92-1.704-.703-3.44.052-.428.137-.878.24-1.337.925.218 1.935.386 2.997.495.637.841 1.298 1.605 1.963 2.273-1.538 1.378-2.982 2.132-3.964 2.132a1.16 1.16 0 0 1-.533-.123m11.194-3.463c.222 1.736-.052 3.086-.689 3.445-.142.082-.325.119-.543.119-.977 0-2.425-.75-3.964-2.119a22 22 0 0 0 1.95-2.268 23 23 0 0 0 3-.5q.166.688.246 1.323m1.817-3.032c-.406.168-.85.318-1.307.459a21 21 0 0 0-1.062-2.769c.434-.945.783-1.868 1.048-2.754q.701.21 1.326.463c1.67.687 2.751 1.587 2.751 2.3-.005.714-1.085 1.619-2.756 2.3"/>
        <path d="M12.278 14.128c1.191 0 2.157-.93 2.157-2.078s-.966-2.077-2.157-2.077-2.157.93-2.157 2.077.966 2.078 2.157 2.078"/>
    </g>
</svg>
