<svg xmlns="http://www.w3.org/2000/svg" width="24" height="24" fill="none" viewBox="0 0 24 24">
    <mask id="a" width="24" height="24" x="0" y="0" maskUnits="userSpaceOnUse" style="mask-type:alpha">
        <path fill="#d9d9d9" d="M0 0h24v24H0z"/>
    </mask>
    <g clip-path="url(#b)">
        <path fill="#470137" d="M4.25.3h15.5A4.25 4.25 0 0 1 24 4.55v14.9a4.25 4.25 0 0 1-4.25 4.25H4.25A4.25 4.25 0 0 1 0 19.45V4.55A4.25 4.25 0 0 1 4.25.3"/>
        <path fill="#ff61f6" d="m12.617 6.454-2.995 4.943 3.204 5.248c.02.037.027.08.016.12s-.048.015-.112.026h-2.286c-.161 0-.274-.006-.339-.114q-.32-.624-.643-1.247-.333-.638-.685-1.264a74 74 0 0 1-.716-1.304h-.016q-.326.649-.668 1.288-.345.639-.685 1.28-.338.636-.692 1.263c-.043.097-.118.107-.225.107H3.569c-.043 0-.067.017-.073-.026a.16.16 0 0 1 .025-.113l3.107-5.104L3.6 6.437q-.048-.063-.016-.104a.12.12 0 0 1 .097-.04h2.27a.34.34 0 0 1 .145.024.3.3 0 0 1 .096.089q.297.656.644 1.288.352.639.717 1.272.36.622.668 1.271h.016q.316-.649.652-1.288.33-.628.676-1.263.341-.628.668-1.264a.25.25 0 0 1 .065-.105.23.23 0 0 1 .129-.024h2.109a.092.092 0 0 1 .08.16m4.62 10.545a5 5 0 0 1-2.149-.45 3.4 3.4 0 0 1-1.505-1.36q-.547-.91-.547-2.28a4.2 4.2 0 0 1 .547-2.108 4 4 0 0 1 1.594-1.546q1.046-.58 2.528-.58.08 0 .209.009t.306.024V5.536q0-.113.096-.113h2.029a.085.085 0 0 1 .097.097v9.515q0 .274.024.596t.04.58a.17.17 0 0 1-.097.16 8 8 0 0 1-1.626.483 8.7 8.7 0 0 1-1.545.145m.983-1.996v-4.395a1.6 1.6 0 0 0-.266-.049 3 3 0 0 0-.33-.016 2.5 2.5 0 0 0-1.127.258 2.2 2.2 0 0 0-.845.74q-.33.483-.33 1.272c-.008.351.05.7.169 1.03.097.267.25.508.45.71.192.184.423.322.677.402.268.086.547.13.829.128q.225 0 .418-.016.181-.013.355-.064"/>
    </g>
    <defs>
        <clipPath id="b">
            <path fill="#fff" d="M0 0h24v24H0z"/>
        </clipPath>
    </defs>
</svg>
