<svg xmlns="http://www.w3.org/2000/svg" width="24" height="24" fill="none" viewBox="0 0 24 24">
    <mask id="a" width="24" height="24" x="0" y="0" maskUnits="userSpaceOnUse" style="mask-type:alpha">
        <path fill="#d9d9d9" d="M0 0h24v24H0z"/>
    </mask>
    <g mask="url(#a)">
        <path fill="#fdbd39" d="m3.7 15.64-1.256.459-.066 3.737 4.345-1.589c-1.491-.5-2.58-1.381-3.023-2.608"/>
        <path fill="#f69833" d="M4.357 11.686 0 13.279l2.444 2.82L3.7 15.64c-.443-1.222-.17-2.603.657-3.954"/>
        <path fill="#fecf33" d="M11.687 6.292C6.14 8.32 2.562 12.506 3.699 15.64l20.09-7.345C22.65 5.16 17.234 4.263 11.686 6.292"/>
        <path fill="#ee6723" d="M15.8 17.643c5.547-2.028 9.13-6.195 7.987-9.347L3.698 15.639c1.143 3.154 6.554 4.033 12.102 2.004"/>
        <path fill="#f69833" d="M23.788 8.295 3.7 15.639c.392 1.086 1.893 1.621 3.997 1.621 2.053 0 4.68-.508 7.418-1.509 5.547-2.028 9.45-5.312 8.673-7.456"/>
        <path fill="#fdbd39" d="M19.79 6.675c-2.052 0-4.68.508-7.417 1.509-5.548 2.028-9.45 5.312-8.673 7.456l20.089-7.345c-.394-1.086-1.894-1.62-4-1.62"/>
        <path fill="#ee6723" d="M18.68 20.035c-.592 0-1.463-.534-2.592-1.588-1.335-1.246-2.864-3.073-4.307-5.142-1.442-2.069-2.627-4.137-3.337-5.825-.773-1.838-.883-2.968-.328-3.36a.74.74 0 0 1 .437-.128c.452 0 1.333.336 2.962 1.941l.036.035-.005.05-.03.347-.018.226-.16-.16C9.583 4.66 8.811 4.47 8.56 4.47a.3.3 0 0 0-.17.042c-.24.17-.257 1 .493 2.782.697 1.657 1.865 3.694 3.288 5.736 1.424 2.043 2.93 3.841 4.242 5.066 1.414 1.32 2.051 1.463 2.26 1.463q.108 0 .173-.046c.255-.179.255-1.068-.581-2.986l-.039-.088.084-.046q.127-.068.241-.135l.1-.056.048.105c.592 1.36 1.146 3.087.42 3.598a.74.74 0 0 1-.44.13"/>
        <path fill="#ee6723" d="m15.934 17.586-.008.104c-.141 1.736-.51 3.824-1.473 3.909q-.03.002-.06.002c-.653 0-1.273-.938-1.838-2.788-.537-1.75-.952-4.1-1.17-6.616-.22-2.516-.217-4.902.008-6.72.246-1.98.712-3.014 1.388-3.074l.061-.003c.475 0 1.19.538 1.922 3.043l-.478.092c-.244-.836-.51-1.517-.775-1.986-.244-.432-.482-.67-.669-.67h-.019c-.293.026-.72.737-.957 2.657-.221 1.785-.224 4.136-.008 6.62s.625 4.798 1.152 6.517c.235.77.493 1.404.748 1.834.233.397.46.616.636.616l.018-.001c.28-.024.809-.765 1.031-3.369z"/>
    </g>
</svg>
